<?xml version="1.0" encoding="utf-8"?>
<!-- Generator: Adobe Illustrator 25.0.1, SVG Export Plug-In . SVG Version: 6.00 Build 0)  -->
<svg version="1.1" id="Layer_1" xmlns="http://www.w3.org/2000/svg" xmlns:xlink="http://www.w3.org/1999/xlink" x="0px" y="0px"
	 viewBox="0 0 860 175" style="enable-background:new 0 0 860 175;" xml:space="preserve">
<g id="Layer_2_1_">
	<g id="Layer_1-2">
		<path d="M28.9,139.1l4.7-8.1c1.5-2.5,1.5-5.6,0-8.1l-4.8-8.3c-4.4-7.6-4.4-16.9,0-24.5L42.8,66c4.3-7.4,12.2-12,20.8-12h9.6
			c2.9,0,5.6-1.5,7-4l4.7-8.1c2.2-3.9,0.9-8.8-2.9-11c-1.2-0.7-2.6-1.1-4.1-1.1h-19c-14.3,0-27.5,7.6-34.7,20L5.5,82.1
			c-7.3,12.6-7.3,28.1,0,40.7l9.5,16.4c2.2,3.8,7.1,5.2,10.9,3C27.2,141.4,28.2,140.3,28.9,139.1z"/>
		<path d="M137.5,47.4l16.8-29.1c3.2-5.6,1.5-12.8-3.9-16.3l0,0c-5.6-3.6-13.1-2.1-16.7,3.5c-0.1,0.2-0.2,0.4-0.4,0.6l-16.6,28.8
			l0,0L104,57l0,0l-52.1,90.8l0,0l-8.9,15.4l0,0c-2.2,3.8-0.9,8.6,2.9,10.7c1.2,0.7,2.5,1,3.9,1.1h47.3c14.3,0,27.5-7.6,34.7-20
			l18.7-32.3c7.3-12.6,7.3-28.1,0-40.7l-13.1-22.5C135.3,55.8,135.3,51.2,137.5,47.4z M127.3,114.6l-14.1,24.2
			c-4.3,7.4-12.2,12-20.8,12h-7.6c-2.2,0-4-1.8-4-4c0-0.7,0.2-1.4,0.5-2l35.3-61.1c1.1-1.9,3.5-2.6,5.5-1.5c0.6,0.4,1.1,0.9,1.5,1.5
			l3.8,6.5C131.7,97.8,131.7,107.1,127.3,114.6z"/>
		<path d="M206,100.5c0-21.6,16.3-40,42.7-40c8.5-0.2,16.8,2.4,23.8,7.3c2.8,1.9,3.1,4.7,1.1,7.4l-2.8,3.4c-2,2.8-4.5,2.8-7.5,1
			c-4.5-2.5-9.5-3.9-14.7-3.9c-15.6,0-25,11.1-25,24.7s9.4,24.7,25,24.7c5.1,0,10.2-1.4,14.7-3.9c3-1.8,5.5-1.8,7.5,1l2.8,3.4
			c2,2.9,1.9,5.3-0.5,7.1c-7.1,5.1-15.6,7.8-24.4,7.6C222.3,140.5,206,122.1,206,100.5z"/>
		<path d="M287.5,100.5c0-21.8,16.9-40,41.3-40s41.2,18.2,41.2,40s-16.9,40-41.3,40S287.5,122.3,287.5,100.5z M352.3,100.5
			c0-13.7-9.8-24.7-23.6-24.7s-23.5,11-23.5,24.7s9.7,24.7,23.5,24.7S352.3,114.2,352.3,100.5L352.3,100.5z"/>
		<path d="M389.4,135V66c0-3.5,2-5.5,5.4-5.5h25.7c23.7,0,39.8,17.9,39.8,40s-16.1,40-39.8,40h-25.7
			C391.4,140.5,389.4,138.6,389.4,135z M418.7,125.2c14.8,0,23.8-10.5,23.8-24.7s-9-24.7-23.8-24.7H407v49.4H418.7z"/>
		<path d="M497.2,75.8v18.1h25.1c3.4,0,5.3,1.9,5.3,5.5v3.1c0,3.6-1.9,5.6-5.3,5.6h-25.1v17.2h29.7c3.5,0,5.3,1.9,5.3,5.5v4.3
			c0,3.5-1.9,5.5-5.3,5.5H485c-3.5,0-5.4-1.9-5.4-5.5V66c0-3.5,2-5.5,5.4-5.5h41.9c3.5,0,5.3,1.9,5.3,5.5v4.3c0,3.5-1.9,5.5-5.3,5.5
			L497.2,75.8z"/>
		<path d="M615.1,117.9c0,13.7-11,22.6-27.7,22.6h-28.8c-3.5,0-5.5-1.9-5.5-5.5V66c0-3.5,2-5.5,5.5-5.5h25.6
			c15.8,0,27.3,8.2,27.3,21.9c0,6.6-3.4,13.5-12.5,16.6C609.7,100.5,615.1,109.8,615.1,117.9z M570.8,74.9v19.5h9.3
			c10,0,14.1-4.9,14.1-10.1c0-5.9-4.9-9.4-11.5-9.4L570.8,74.9z M597.7,116.5c0-5.3-4.3-10.4-14.7-10.4h-12.2v19.8h15.9
			C593.7,125.9,597.7,121.8,597.7,116.5L597.7,116.5z"/>
		<path d="M630.3,100.5c0-21.8,16.9-40,41.3-40s41.3,18.2,41.3,40s-16.9,40-41.3,40S630.3,122.3,630.3,100.5z M695.1,100.5
			c0-13.7-9.8-24.7-23.6-24.7s-23.5,11-23.5,24.7s9.7,24.7,23.5,24.7S695.1,114.2,695.1,100.5z"/>
		<path d="M788.4,66v4.3c0,3.5-2,5.5-5.5,5.5h-18V135c0,3.5-1.9,5.5-5.3,5.5h-6.7c-3.5,0-5.3-1.9-5.3-5.5V75.8h-17.8
			c-3.5,0-5.3-1.9-5.3-5.5V66c0-3.5,1.9-5.5,5.3-5.5h53.2C786.4,60.5,788.4,62.4,788.4,66z"/>
		<path d="M801.2,123.8c-1.4-3.3,0.3-5.6,3.8-6.5l4.8-1.1c3.1-0.8,4.8,0.6,6.5,3.4c2.6,4.1,7.5,6.9,14,6.9c7.6,0,12.6-3.3,12.6-8.4
			c0-3.9-3-7-8.9-9l-10.1-3.7c-9.2-3-20.6-9.8-20.7-21.8c0-14.2,12.3-23,27.6-23c12.1,0,20.7,5.3,24.9,14.2c1.7,3.2,0.1,5.8-3.2,6.8
			l-4.4,1.2c-3.1,0.9-5-0.3-6.9-3c-2-3.3-5.5-5.1-10.1-5.1c-5.6,0-10.3,2.8-10.3,7.9c0,2.8,1.2,5.8,8.1,8.3l10.1,3.7
			c15.2,5.1,20.9,13.1,21.1,22.8c0,15.2-13,23.3-29.6,23.3C815.9,140.5,805.3,134.1,801.2,123.8z"/>
	</g>
</g>
</svg>
