<svg id="Layer_1" data-name="Layer 1" xmlns="http://www.w3.org/2000/svg" viewBox="0 0 1920 1080">
  <rect width="1920" height="1080" style="fill: #ffd9e1"/>
  <g>
    <path d="M-5.2,241.26q-.15,3.81-.25,7.64A38.29,38.29,0,0,1,7.46,278.43c-.27,9-3.95,17.72-9.19,25.33a60,60,0,0,1-5.73,7c0,.68-.09,1.36-.15,2.05-.19,2.45-.33,4.9-.44,7.36,13-11.58,22.14-28.14,22-43.76A43.45,43.45,0,0,0-5.2,241.26Z" style="fill: #ed3920"/>
    <path d="M28.8,228.28A83,83,0,0,0-3.54,207l-.33,6.1c22.62,9,39.16,28.05,45,49.54,8,29.26-2.67,60.29-22.12,84.24C10.75,357.07.89,365.73-9.44,374.06l-.24,7.16c25-17.14,45.84-41.88,54.77-68.65C54.66,283.88,50.72,251.78,28.8,228.28Z" style="fill: #ed3920"/>
    <path d="M76.17,246.73c-5.1-20.42-15.81-39.55-30.72-55.72A143,143,0,0,0-3.48,156.67c.18,2.2.34,4.41.46,6.62,34.65,16.23,60.86,46.07,71.33,79.49,14.58,46.53-8.3,94.59-35.93,133.74C20,394,5.69,409.79-10,424.71c0,2.87-.05,5.75-.16,8.62.07.32.13.63.19.94a306.12,306.12,0,0,0,44.21-48.94c15.88-21.63,29.5-45.52,38-70.25C79.87,292.75,81.89,269.6,76.17,246.73Z" style="fill: #ed3920"/>
    <path d="M110.89,241.9c-3.84-29.88-17-57.58-38.24-81a181.61,181.61,0,0,0-78.4-50.07q0,3,.08,6C49.94,136,92.69,181,103.27,233.33c7.27,35.9-.47,73.43-12.4,107.87a354.42,354.42,0,0,1-44.55,86.6c-16.86,24.15-37,46-58.78,66.59-.43,3.75-.9,7.52-1.32,11.3,0,.26,0,.51,0,.77,23.31-19.85,43.19-42.92,60.39-67.09A393.53,393.53,0,0,0,94,350.49C107.21,315.7,115.62,278.69,110.89,241.9Z" style="fill: #ed3920"/>
  </g>
  <g>
    <path d="M1424.82,848.5a110,110,0,0,0-11.24-26.08c-10.72-18.13-26.78-34.42-46.18-43a2.37,2.37,0,0,0-2.44.18q-.37-3.11-.72-6.23c9.56,4.44,21.18,7.16,31.1,4.35,2.39-.68,2.2-4.52-.28-4.9-5.48-.85-11-.79-16.49-1.84a69.72,69.72,0,0,1-16.55-5.58c-1.87-.88-4.79.51-4.39,2.88,1.83,10.91,3,21.94,4.42,32.92.46,3.67,6.23,3.37,5.75-.29-.74-5.62-1.54-11.23-2.27-16.85,24.54,14,43.89,34.36,52.86,61.59,2.06,6.27,4,13,3.94,19.69a19.17,19.17,0,0,1-1.37,6.54,62,62,0,0,0-8.44-5.78c-2.75-1.57-5-2.2-7.75-.19a9.83,9.83,0,0,0-3.68,7,10.46,10.46,0,0,0,9.78,11.9,14.83,14.83,0,0,0,11.52-4.79,62.19,62.19,0,0,1,17.25,48.9c-.39,3.53,5.06,4.69,5.43,1.15a66.41,66.41,0,0,0-14.1-48.12,68.75,68.75,0,0,0-5.57-6.12,15.86,15.86,0,0,0,.93-2.12C1429.2,865.56,1427.08,856.5,1424.82,848.5Zm-15.66,30.78c-3-1.13-4-4.53-2.93-7.41,1.61-4.3,6.09-.3,8.42,1.39q2,1.44,3.83,3C1416.24,879.13,1413.09,880.79,1409.16,879.28Z" style="fill: #ed3920"/>
    <path d="M1433.18,713.72c-9.87.16-20.06,2.61-29.78,4.3-1.36.24-2.76,1.69-2.36,3.19.21.82.43,1.64.64,2.46a3.11,3.11,0,0,0,.87,3.32q1.7,6.42,3.37,12.83c.89,3.39,6.31,2.63,5.43-.8-.76-3-1.52-6-2.29-9a73.16,73.16,0,0,1,11.25,5.16c5.26,3.27,9.82,7.71,12.18,13.53a18.12,18.12,0,0,1,1.26,9.52c-.29-.38-.57-.77-.87-1.14-3.48-4.34-8.29-8.55-14.2-8.27a10.68,10.68,0,0,0-9.44,7.32c-3.55,9.52,3.21,19.6,13.63,18.35a17.13,17.13,0,0,0,11.4-6.26,92.23,92.23,0,0,1,12.11,34.81c.48,3.48,5.91,2.68,5.4-.8a97,97,0,0,0-14.53-39.12,21.24,21.24,0,0,0,.81-13c-3.46-13.57-17.6-23-30.73-26.88l0-.06c8.88-1.06,18.16-1.87,26.65-4.36C1436.46,718.1,1435.78,713.68,1433.18,713.72Zm-2.78,51.56c-3.57,3.86-10.58,6.65-15,2.41-3.21-3.08-3.42-10.37.6-13,5.85-3.84,11.92,4.21,14.82,8.3.22.31.43.63.65.95A13.7,13.7,0,0,1,1430.4,765.28Z" style="fill: #ed3920"/>
    <path d="M1367.84,867.67c-3.15-5.77-9.75-10.72-16.43-9.82a34,34,0,0,0-14.58-25,37,37,0,0,0,7.6.87c3,0,3.61-4.2,1.15-5.47-5.92-3-13.52-4.2-20.09-4.88a2.87,2.87,0,0,0-3.4,2.91c.45,6.17.29,12.42.36,18.6,0,3.51,5.51,3.22,5.45-.29s-.19-7.21-.25-10.82c11.24,3.28,18.48,14.43,19,25.75-5.89,3.67-8.82,12.19-4,17.84a2.42,2.42,0,0,0,4.09-.25,29.17,29.17,0,0,0,4.73-14.36c4-.82,8,1.79,10.43,4.89,6.38,8.16,2.83,19.47,0,28.31-4.26,13.26-8.56,34.41,9,40.18,2.59.85,3.92-3.29,1.55-4.45-13-6.31-9.33-22-5.88-33C1369.65,888.86,1373.17,877.43,1367.84,867.67Zm-22.72,2.2a7.94,7.94,0,0,1,.81-2.7A26.11,26.11,0,0,1,1345.12,869.87Z" style="fill: #ed3920"/>
  </g>
  <g>
    <path d="M499.06,704.64c-11.53,3.57-22.6,5.29-34.42,1.76a45.21,45.21,0,0,1-27-21.54,3.6,3.6,0,0,0-1.35-1.43c-.26-.42-.52-.85-.8-1.26-2.34-3.48-8-.18-5.65,3.3.27.4.53.81.79,1.22a3.87,3.87,0,0,0,.45,2,43,43,0,0,0,3,4.81,40.63,40.63,0,0,1,2.33,19.62c-1.31,10.53-6.63,18.17-13.64,25.73-2,2.1.56,5.72,3.16,4.09.87-.55,1.69-1.14,2.49-1.75a3.56,3.56,0,0,0,1.74.26,44.52,44.52,0,0,1,30.42,9.15c9.14,6.94,14.35,16.16,17.54,27a2.66,2.66,0,0,0,4.15,1.22c.4.9.82,1.78,1.29,2.64,1.53,2.82,5.5.81,4.93-2.08-2.27-11.58-4.86-22.43-3.86-34.37a75.84,75.84,0,0,1,10.27-32.18,35,35,0,0,0,6.61-4.05C503.47,707.22,501.29,704,499.06,704.64ZM478.27,744.2a88.52,88.52,0,0,0-.45,15.34c-8.39-14.84-25.56-25-42.43-25.82,6-8.69,8.28-20.13,7.16-31,12.08,10.31,29.22,16,44.34,12.76A85.54,85.54,0,0,0,478.27,744.2Z" style="fill: #ed3920"/>
    <path d="M479.85,657.31c-1.71,6.5-2.73,13.21-3.84,19.84-.67,4,5.49,5.76,6.17,1.7C483.33,672,484.59,665,485.1,658,485.32,655,480.61,654.44,479.85,657.31Z" style="fill: #ed3920"/>
    <path d="M519.19,663.7c-5.38,4.95-10.1,10.68-14.89,16.19-3,3.49,2.05,8.61,5.09,5.1,5-5.73,10.15-11.44,14.44-17.71C525.79,664.41,521.57,661.52,519.19,663.7Z" style="fill: #ed3920"/>
    <path d="M534.11,720.17c-7.22-1-14.47-1.76-21.71-2.51-3.23-.33-3.2,4.7,0,5,7,.75,14.05,1.51,21.09,2C536.06,724.9,536.7,720.53,534.11,720.17Z" style="fill: #ed3920"/>
  </g>
  <g>
    <path d="M1116.28,160.25c-10.87,0-10.89,16.89,0,16.89S1127.16,160.25,1116.28,160.25Z" style="fill: #ed3920"/>
    <path d="M1159.35,160.14c-10.87,0-10.89,16.89,0,16.89S1170.23,160.14,1159.35,160.14Z" style="fill: #ed3920"/>
    <path d="M1206.48,160.14c-10.87,0-10.89,16.89,0,16.89S1217.36,160.14,1206.48,160.14Z" style="fill: #ed3920"/>
    <path d="M1117.46,206.23c-10.87,0-10.89,16.88,0,16.88S1128.34,206.23,1117.46,206.23Z" style="fill: #ed3920"/>
    <path d="M1159.35,207.27c-10.87,0-10.89,16.89,0,16.89S1170.23,207.27,1159.35,207.27Z" style="fill: #ed3920"/>
    <path d="M1207.53,205.18c-10.87,0-10.89,16.89,0,16.89S1218.41,205.18,1207.53,205.18Z" style="fill: #ed3920"/>
  </g>
</svg>
