<?xml version="1.0" encoding="utf-8"?>
<!-- Generator: Adobe Illustrator 24.3.0, SVG Export Plug-In . SVG Version: 6.00 Build 0)  -->
<svg version="1.1" id="Layer_1" xmlns="http://www.w3.org/2000/svg" xmlns:xlink="http://www.w3.org/1999/xlink" x="0px" y="0px"
	 viewBox="0 0 254 193.7" style="enable-background:new 0 0 254 193.7;" xml:space="preserve">
<path d="M254,96.7c0-1.6,0-3.3-0.2-4.9c-2.1-29.6-22.9-52.9-48.2-52.9c-23.6,0-43.2,20.1-47.5,46.7h-6.3
	c-4.3-26.6-23.9-46.7-47.5-46.7S61.2,59,56.9,85.6H0c0,1.6,0.1,3.3,0.2,4.9c2.1,29.6,22.9,52.9,48.2,52.9
	c23.5,0,43.2-20.1,47.5-46.7h6.3c4.3,26.6,23.9,46.7,47.5,46.7s43.2-20.1,47.5-46.7L254,96.7z"/>
</svg>
